<svg width="384" height="330" viewBox="0 0 384 330" fill="none" xmlns="http://www.w3.org/2000/svg">
<path d="M86.2866 303.571C152.4 338.81 259.594 338.81 325.708 303.571C391.822 268.332 391.822 211.181 325.708 175.942C259.594 140.703 152.4 140.703 86.2866 175.942C20.1727 211.181 20.1727 268.323 86.2866 303.571Z" fill="#EBEBEB"/>
<path d="M345.156 216.137L335.512 210.537C335.512 210.537 333.148 189.903 334.718 173.926C336.923 151.473 351.445 124.465 368.77 130.793C386.095 137.12 360.827 160.012 355.202 179.059C349.576 198.106 345.156 216.137 345.156 216.137Z" fill="#FF9900"/>
<path opacity="0.1" d="M345.156 216.137L335.512 210.537C335.512 210.537 333.148 189.903 334.718 173.926C336.923 151.473 351.445 124.465 368.77 130.793C386.095 137.12 360.827 160.012 355.202 179.059C349.576 198.106 345.156 216.137 345.156 216.137Z" fill="black"/>
<path d="M340.101 213.617C340.011 213.615 339.925 213.581 339.858 213.521C339.791 213.461 339.748 213.379 339.737 213.29C336.457 188.093 345.428 150.017 363.556 135.561C363.634 135.502 363.732 135.475 363.829 135.485C363.926 135.496 364.016 135.543 364.08 135.617C364.141 135.694 364.17 135.792 364.159 135.89C364.149 135.988 364.1 136.078 364.023 136.14C346.091 150.437 337.223 188.224 340.475 213.197C340.485 213.293 340.458 213.39 340.399 213.466C340.34 213.543 340.253 213.593 340.157 213.607L340.101 213.617Z" fill="white"/>
<path d="M350.304 220.121L343.435 216.164C343.435 216.164 342.267 201.998 349.22 184.799C355.275 169.867 370.292 157.399 377.842 160.012C385.393 162.625 385.206 167.972 381.524 173.581C377.842 179.19 355.443 192.563 350.304 220.121Z" fill="#FF9900"/>
<path d="M346.052 220.495C346.003 220.492 345.955 220.48 345.912 220.459C345.868 220.438 345.828 220.408 345.796 220.372C345.764 220.335 345.739 220.293 345.724 220.246C345.708 220.2 345.702 220.151 345.706 220.103C347.968 184.864 365.816 167.534 376.544 164.893C376.639 164.87 376.74 164.886 376.823 164.937C376.907 164.987 376.968 165.069 376.992 165.163C377.005 165.211 377.008 165.26 377.001 165.308C376.994 165.357 376.977 165.403 376.952 165.445C376.927 165.487 376.893 165.523 376.854 165.552C376.814 165.58 376.769 165.601 376.721 165.611C365.433 168.411 348.575 187.169 346.454 220.149C346.45 220.199 346.437 220.246 346.415 220.29C346.393 220.334 346.362 220.373 346.325 220.406C346.287 220.438 346.244 220.462 346.197 220.477C346.15 220.493 346.101 220.499 346.052 220.495Z" fill="white"/>
<path d="M67.3553 218.88C67.3553 218.88 68.6262 198.19 56.5902 184.015C44.5542 169.839 28.9205 169.848 23.6968 172.517C18.4731 175.186 15.0342 182.718 23.9584 188.121C32.8827 193.524 51.8618 204.378 55.0109 213.981L67.3553 218.88Z" fill="#FF9900"/>
<path opacity="0.1" d="M67.3553 218.88C67.3553 218.88 68.6262 198.19 56.5902 184.015C44.5542 169.839 28.9205 169.848 23.6968 172.517C18.4731 175.186 15.0342 182.718 23.9584 188.121C32.8827 193.524 51.8618 204.378 55.0109 213.981L67.3553 218.88Z" fill="black"/>
<path d="M61.7302 213.71C61.6154 213.711 61.5043 213.67 61.4181 213.594C61.332 213.518 61.2767 213.413 61.2629 213.3C58.824 190.379 35.8733 177.706 26.7435 176.269C26.6828 176.26 26.6244 176.239 26.5717 176.207C26.5191 176.175 26.4732 176.134 26.4368 176.084C26.4003 176.035 26.374 175.979 26.3593 175.919C26.3446 175.86 26.3418 175.798 26.3511 175.737C26.3602 175.676 26.3812 175.618 26.413 175.565C26.4447 175.513 26.4865 175.467 26.536 175.431C26.5854 175.394 26.6416 175.368 26.7013 175.353C26.761 175.339 26.823 175.336 26.8837 175.345C36.2284 176.81 59.6556 189.782 62.1881 213.188C62.2012 213.31 62.1653 213.433 62.0883 213.529C62.0113 213.625 61.8994 213.687 61.7769 213.701L61.7302 213.71Z" fill="white"/>
<path d="M57.2721 208.447C54.2538 201.578 50.8429 198.498 41.0684 200.141C31.2938 201.783 32.6581 201.531 20.6502 198.461C15.5947 197.173 9.90374 196.977 5.04449 199.152C0.942156 201.018 -2.12291 204.751 1.84859 208.727C6.31537 213.188 12.9782 214.69 17.9402 218.6C19.0561 219.392 19.9426 220.464 20.51 221.708C21.7996 225.012 19.2111 228.735 19.968 232.197C20.7249 235.66 24.3694 237.508 27.7895 237.731C31.2097 237.955 34.5831 236.929 37.994 236.537C41.4048 236.145 45.2361 236.537 47.5816 239.066C50.1047 241.754 50.1701 246.028 52.5157 248.874C56.0386 253.148 64.6638 254.324 69.3361 251.674L81.559 244.628C89.6516 233.747 76.8867 225.124 70.2146 216.631C66.9159 212.572 59.085 212.581 57.2721 208.447Z" fill="#FF9900"/>
<path d="M73.9348 238.058C73.8541 238.058 73.7748 238.038 73.7043 237.999C73.6339 237.96 73.5749 237.903 73.533 237.834C59.5813 215.259 21.6324 203.846 8.16665 202.885C8.10526 202.881 8.04517 202.865 7.98984 202.839C7.93451 202.812 7.88502 202.774 7.84422 202.728C7.80341 202.682 7.7721 202.629 7.75206 202.571C7.73202 202.513 7.72366 202.451 7.72745 202.39C7.73931 202.266 7.79826 202.152 7.89215 202.07C7.98604 201.988 8.10771 201.946 8.23207 201.951C21.8473 202.885 60.198 214.475 74.3273 237.349C74.3612 237.4 74.3842 237.458 74.3951 237.519C74.4059 237.58 74.4043 237.642 74.3903 237.703C74.3763 237.763 74.3503 237.82 74.3138 237.869C74.2772 237.919 74.2309 237.961 74.1777 237.993C74.1047 238.037 74.0203 238.06 73.9348 238.058Z" fill="white"/>
<path d="M29.7335 227.419C29.6611 227.419 29.5898 227.401 29.525 227.369C29.4602 227.337 29.4037 227.29 29.3597 227.233C29.3233 227.183 29.2972 227.127 29.2827 227.067C29.2682 227.007 29.2656 226.945 29.2752 226.885C29.2847 226.824 29.3062 226.766 29.3383 226.713C29.3705 226.661 29.4127 226.615 29.4625 226.579C29.9484 226.215 41.5265 217.723 52.8243 217.555C52.9482 217.555 53.067 217.604 53.1546 217.692C53.2423 217.779 53.2915 217.898 53.2915 218.022C53.2915 218.145 53.2423 218.264 53.1546 218.352C53.067 218.439 52.9482 218.488 52.8243 218.488C41.8629 218.656 30.154 227.242 30.0325 227.326C29.9477 227.393 29.8412 227.426 29.7335 227.419Z" fill="white"/>
<path d="M73.0645 245.991C73.1643 247.348 73.5826 248.662 74.2856 249.828C74.9885 250.994 75.9563 251.978 77.1107 252.701L190.481 318.073C191.735 318.709 193.121 319.04 194.527 319.04C195.933 319.04 197.319 318.709 198.573 318.073L353.696 228.633C354.918 227.987 355.941 227.02 356.654 225.837C357.368 224.654 357.745 223.299 357.745 221.918C357.745 220.537 357.368 219.182 356.654 217.999C355.941 216.816 354.918 215.849 353.696 215.203L240.326 149.877C239.072 149.242 237.685 148.911 236.279 148.911C234.873 148.911 233.487 149.242 232.233 149.877L77.1107 239.318C75.9612 240.037 74.9963 241.015 74.2937 242.174C73.591 243.333 73.17 244.64 73.0645 245.991Z" fill="#37474F"/>
<path d="M119.836 214.643L77.1116 239.281C75.8889 239.925 74.8655 240.891 74.1517 242.073C73.4378 243.255 73.0605 244.61 73.0605 245.991C73.0605 247.371 73.4378 248.726 74.1517 249.908C74.8655 251.091 75.8889 252.056 77.1116 252.7L190.482 318.073C191.73 318.721 193.122 319.043 194.528 319.007V214.643H119.836Z" fill="#1E2A34"/>
<path d="M69.2701 239.43C68.1411 238.665 67.2084 237.646 66.5476 236.454C65.8869 235.262 65.5166 233.932 65.4668 232.571V97.4575C65.5435 96.0555 65.9498 94.6912 66.6528 93.4752C67.3557 92.2592 68.3356 91.2256 69.5131 90.4582L224.635 1.00805C225.839 0.3706 227.176 0.0257056 228.539 0.00138248C229.901 -0.0229406 231.25 0.273993 232.476 0.868064C233.605 1.63004 234.538 2.64765 235.199 3.838C235.86 5.02834 236.23 6.35776 236.279 7.71798V142.84C236.202 144.243 235.796 145.607 235.093 146.823C234.39 148.039 233.41 149.072 232.233 149.84L77.1103 239.281C75.9066 239.917 74.5699 240.263 73.208 240.289C71.8461 240.314 70.4972 240.02 69.2701 239.43Z" fill="#455A64"/>
<path d="M84.4476 103.729L66.6926 93.4633C65.9656 94.6698 65.5572 96.041 65.5059 97.4482V232.571C65.5556 233.932 65.9259 235.263 66.5867 236.454C67.2475 237.646 68.1802 238.665 69.3092 239.43C70.5363 240.02 71.8852 240.315 73.2471 240.289C74.609 240.263 75.9457 239.917 77.1494 239.281L94.8389 229.08L84.4476 103.729Z" fill="#1E2A34"/>
<path d="M73.0645 101.834V236.948C73.0645 239.523 74.8773 240.569 77.1107 239.281L232.233 149.84C233.41 149.072 234.39 148.039 235.093 146.823C235.796 145.607 236.203 144.243 236.279 142.841V7.71807C236.279 5.14236 234.466 4.09714 232.233 5.385L77.1107 94.8352C75.9333 95.6026 74.9534 96.6361 74.2504 97.8521C73.5475 99.0681 73.1412 100.432 73.0645 101.834Z" fill="#37474F"/>
<path d="M77.1106 243.947L190.481 309.32C191.735 309.955 193.121 310.286 194.527 310.286C195.933 310.286 197.319 309.955 198.573 309.32L353.696 219.869C355.929 218.582 355.929 216.501 353.696 215.203L240.325 149.877C239.072 149.242 237.685 148.911 236.279 148.911C234.873 148.911 233.487 149.242 232.233 149.877L77.1106 239.318C74.8772 240.569 74.8772 242.64 77.1106 243.947Z" fill="#455A64"/>
<path d="M79.289 102.329L230.066 15.3985C231.402 14.624 232.486 15.2492 232.486 16.7984V133.76C232.442 134.601 232.199 135.419 231.779 136.149C231.358 136.879 230.772 137.499 230.066 137.96L79.289 224.909C77.9434 225.683 76.8594 225.058 76.8594 223.509V106.529C76.905 105.687 77.1488 104.868 77.571 104.138C77.9932 103.409 78.5818 102.789 79.289 102.329Z" fill="white"/>
<path d="M90.2668 240.447L234.26 157.39C234.887 157.072 235.58 156.907 236.283 156.907C236.986 156.907 237.679 157.072 238.306 157.39L245.67 161.636C245.914 161.719 246.126 161.876 246.276 162.085C246.426 162.294 246.507 162.545 246.507 162.802C246.507 163.06 246.426 163.311 246.276 163.52C246.126 163.729 245.914 163.886 245.67 163.969L101.658 247.017C101.031 247.334 100.338 247.5 99.6349 247.5C98.932 247.5 98.2389 247.334 97.6118 247.017L90.2668 242.78C90.0228 242.698 89.8107 242.541 89.6606 242.331C89.5104 242.122 89.4297 241.871 89.4297 241.614C89.4297 241.356 89.5104 241.105 89.6606 240.896C89.8107 240.687 90.0228 240.53 90.2668 240.447Z" fill="#1E2A34"/>
<path d="M109.285 251.394L253.277 168.336C253.905 168.019 254.598 167.854 255.301 167.854C256.004 167.854 256.697 168.019 257.324 168.336L302.627 194.467C302.871 194.55 303.083 194.707 303.233 194.916C303.383 195.125 303.464 195.376 303.464 195.633C303.464 195.891 303.383 196.142 303.233 196.351C303.083 196.56 302.871 196.717 302.627 196.8L158.812 279.727C158.183 280.044 157.488 280.21 156.784 280.21C156.079 280.21 155.385 280.044 154.756 279.727L109.285 253.718C109.039 253.638 108.826 253.482 108.674 253.273C108.523 253.065 108.441 252.814 108.441 252.556C108.441 252.298 108.523 252.047 108.674 251.838C108.826 251.63 109.039 251.474 109.285 251.394Z" fill="#1E2A34"/>
<path d="M238.326 205.722L242.83 203.118C243.026 203.015 243.017 202.829 242.83 202.707L237.597 199.712C237.485 199.657 237.362 199.628 237.237 199.628C237.112 199.628 236.989 199.657 236.877 199.712L232.364 202.315C232.177 202.427 232.186 202.614 232.364 202.726L237.578 205.731C237.693 205.792 237.822 205.823 237.953 205.821C238.083 205.819 238.212 205.785 238.326 205.722ZM229.429 195.391L224.916 197.995C224.729 198.107 224.738 198.293 224.916 198.405L230.13 201.41C230.241 201.467 230.365 201.497 230.49 201.497C230.615 201.497 230.738 201.467 230.85 201.41L235.354 198.806C235.55 198.704 235.541 198.517 235.354 198.396L230.14 195.391C230.029 195.335 229.908 195.306 229.784 195.306C229.661 195.306 229.539 195.335 229.429 195.391ZM214.861 203.79L207.236 208.195C207.039 208.297 207.049 208.484 207.236 208.605L212.45 211.61C212.562 211.666 212.685 211.694 212.81 211.694C212.935 211.694 213.058 211.666 213.17 211.61L220.804 207.206C220.991 207.094 220.982 206.916 220.804 206.795L215.59 203.79C215.48 203.734 215.358 203.705 215.235 203.705C215.111 203.705 214.99 203.734 214.88 203.79H214.861ZM222.841 199.189L218.328 201.793C218.141 201.905 218.15 202.091 218.328 202.203L223.542 205.208C223.653 205.266 223.777 205.296 223.902 205.296C224.027 205.296 224.15 205.266 224.262 205.208L228.766 202.605C228.962 202.502 228.953 202.315 228.766 202.194L223.552 199.189C223.441 199.133 223.32 199.104 223.196 199.104C223.073 199.104 222.951 199.133 222.841 199.189ZM205.152 209.389L200.648 211.993C200.451 212.096 200.461 212.282 200.648 212.404L205.862 215.409C205.973 215.466 206.097 215.496 206.222 215.496C206.347 215.496 206.47 215.466 206.581 215.409L211.095 212.805C211.282 212.693 211.273 212.506 211.095 212.394L205.881 209.389C205.768 209.33 205.643 209.3 205.516 209.3C205.389 209.3 205.264 209.33 205.152 209.389ZM198.564 213.188L194.05 215.791C193.863 215.903 193.873 216.081 194.05 216.202L199.265 219.207C199.376 219.264 199.499 219.294 199.624 219.294C199.75 219.294 199.873 219.264 199.984 219.207L204.488 216.603C204.685 216.491 204.675 216.314 204.488 216.193L199.274 213.188C199.164 213.132 199.042 213.103 198.919 213.103C198.795 213.103 198.674 213.132 198.564 213.188ZM219.066 225.413L223.58 222.809C223.766 222.706 223.757 222.52 223.58 222.399L218.365 219.394C218.253 219.338 218.13 219.31 218.005 219.31C217.881 219.31 217.758 219.338 217.646 219.394L213.141 221.997C212.945 222.109 212.955 222.296 213.141 222.408L218.356 225.413C218.466 225.469 218.588 225.498 218.711 225.498C218.834 225.498 218.956 225.469 219.066 225.413ZM212.525 229.211L217.038 226.617C217.225 226.505 217.216 226.318 217.038 226.197L211.824 223.192C211.712 223.137 211.589 223.108 211.464 223.108C211.339 223.108 211.216 223.137 211.104 223.192L206.6 225.795C206.404 225.907 206.413 226.094 206.6 226.206L211.815 229.22C211.92 229.266 212.033 229.288 212.147 229.286C212.262 229.285 212.374 229.259 212.478 229.211H212.525ZM205.937 233.009L210.441 230.415C210.637 230.303 210.628 230.116 210.441 229.995L205.227 226.99C205.115 226.933 204.992 226.903 204.867 226.903C204.742 226.903 204.618 226.933 204.507 226.99L199.928 229.575C199.741 229.687 199.751 229.874 199.928 229.995L205.142 233C205.257 233.061 205.385 233.094 205.515 233.096C205.645 233.097 205.774 233.068 205.89 233.009H205.937ZM199.395 236.808L203.9 234.213C204.096 234.101 204.086 233.915 203.9 233.793L198.685 230.788C198.573 230.733 198.45 230.704 198.325 230.704C198.201 230.704 198.078 230.733 197.966 230.788L193.387 233.373C193.2 233.485 193.209 233.672 193.387 233.793L198.601 236.798C198.71 236.852 198.829 236.881 198.95 236.882C199.072 236.884 199.192 236.858 199.302 236.808H199.395ZM231.7 209.52L236.204 206.926C236.401 206.814 236.391 206.627 236.204 206.506L230.99 203.501C230.878 203.445 230.755 203.417 230.63 203.417C230.505 203.417 230.382 203.445 230.27 203.501L225.757 206.104C225.57 206.216 225.579 206.403 225.757 206.515L230.971 209.529C231.085 209.584 231.21 209.612 231.337 209.611C231.463 209.609 231.588 209.578 231.7 209.52ZM225.617 221.652L235.681 215.857C235.868 215.745 235.858 215.558 235.681 215.437L223.028 208.111C222.917 208.053 222.794 208.024 222.668 208.024C222.543 208.024 222.42 208.053 222.309 208.111L217.104 211.116C216.917 211.228 216.926 211.405 217.104 211.526L223.804 215.39C224.009 215.511 224.028 215.698 223.804 215.81L219.645 218.208C219.449 218.32 219.468 218.507 219.645 218.619L224.85 221.624C224.973 221.695 225.112 221.731 225.254 221.73C225.395 221.728 225.533 221.688 225.654 221.615L225.617 221.652ZM191.976 216.986L187.462 219.589C187.275 219.701 187.285 219.888 187.462 220L192.677 223.005C192.788 223.062 192.911 223.092 193.036 223.092C193.162 223.092 193.285 223.062 193.396 223.005L197.9 220.401C198.097 220.299 198.087 220.112 197.9 219.991L192.686 216.986C192.576 216.93 192.454 216.901 192.331 216.901C192.207 216.901 192.086 216.93 191.976 216.986ZM185.388 220.784L180.874 223.388C180.687 223.5 180.697 223.686 180.874 223.798L186.089 226.813C186.2 226.868 186.324 226.897 186.448 226.897C186.573 226.897 186.696 226.868 186.808 226.813L191.312 224.218C191.508 224.106 191.49 223.92 191.312 223.798L186.107 220.793C185.996 220.737 185.873 220.706 185.749 220.705C185.624 220.703 185.5 220.73 185.388 220.784ZM152.457 263.386C152.568 263.443 152.692 263.473 152.817 263.473C152.942 263.473 153.065 263.443 153.176 263.386L157.681 260.792C157.877 260.68 157.867 260.493 157.681 260.372L152.466 257.367C152.354 257.312 152.231 257.283 152.106 257.283C151.982 257.283 151.859 257.312 151.747 257.367L147.233 259.97C147.046 260.082 147.056 260.269 147.233 260.381L152.457 263.386ZM132.646 251.179L128.133 253.783C127.946 253.895 127.955 254.082 128.133 254.194L133.347 257.199C133.458 257.256 133.582 257.286 133.707 257.286C133.832 257.286 133.955 257.256 134.067 257.199L138.571 254.595C138.767 254.492 138.748 254.306 138.571 254.184L133.366 251.179C133.254 251.122 133.131 251.092 133.006 251.092C132.881 251.092 132.757 251.122 132.646 251.179ZM143.243 260.092C143.354 260.149 143.478 260.179 143.603 260.179C143.728 260.179 143.851 260.149 143.963 260.092L148.476 257.497C148.663 257.385 148.654 257.199 148.476 257.077L143.262 254.072C143.15 254.017 143.027 253.989 142.902 253.989C142.777 253.989 142.654 254.017 142.542 254.072L138.038 256.639C137.842 256.751 137.86 256.937 138.038 257.049L143.243 260.092ZM164.063 265.691L168.577 263.087C168.763 262.985 168.754 262.798 168.577 262.677L163.362 259.672C163.251 259.614 163.128 259.585 163.002 259.585C162.877 259.585 162.754 259.614 162.643 259.672L158.129 262.238C157.942 262.35 157.952 262.537 158.129 262.649L163.344 265.654C163.454 265.723 163.581 265.764 163.711 265.772C163.842 265.78 163.972 265.755 164.091 265.7L164.063 265.691ZM156.755 269.471C156.867 269.528 156.99 269.558 157.115 269.558C157.24 269.558 157.364 269.528 157.475 269.471L161.979 266.867C162.175 266.764 162.166 266.578 161.979 266.456L156.765 263.451C156.653 263.396 156.53 263.368 156.405 263.368C156.28 263.368 156.157 263.396 156.045 263.451L151.532 266.055C151.345 266.167 151.354 266.354 151.532 266.466L156.755 269.471ZM139.234 247.372L134.721 249.975C134.534 250.087 134.543 250.265 134.721 250.386L139.935 253.391C140.046 253.448 140.17 253.478 140.295 253.478C140.42 253.478 140.543 253.448 140.655 253.391L145.159 250.787C145.355 250.675 145.346 250.498 145.159 250.377L139.944 247.372C139.837 247.322 139.72 247.297 139.602 247.299C139.484 247.3 139.368 247.328 139.262 247.381L139.234 247.372ZM172.174 228.381L167.67 230.975C167.474 231.087 167.493 231.274 167.67 231.395L172.884 234.4C172.995 234.455 173.116 234.484 173.24 234.484C173.363 234.484 173.484 234.455 173.595 234.4L178.108 231.805C178.295 231.693 178.286 231.507 178.108 231.386L172.894 228.381C172.785 228.329 172.667 228.303 172.547 228.305C172.427 228.307 172.309 228.336 172.202 228.39L172.174 228.381ZM145.85 243.574L141.337 246.177C141.15 246.28 141.159 246.467 141.337 246.588L146.551 249.593C146.662 249.65 146.786 249.68 146.911 249.68C147.036 249.68 147.159 249.65 147.271 249.593L151.775 246.989C151.971 246.877 151.962 246.691 151.775 246.579L146.57 243.574C146.458 243.516 146.335 243.486 146.21 243.486C146.085 243.486 145.961 243.516 145.85 243.574ZM178.79 224.582L174.286 227.177C174.099 227.289 174.109 227.475 174.286 227.587L179.501 230.602C179.612 230.657 179.736 230.685 179.86 230.685C179.985 230.685 180.108 230.657 180.22 230.602L184.724 228.007C184.92 227.895 184.902 227.709 184.724 227.587L179.51 224.582C179.398 224.526 179.274 224.498 179.149 224.5C179.024 224.501 178.901 224.533 178.79 224.592V224.582ZM165.614 232.179L161.11 234.773C160.914 234.885 160.933 235.072 161.11 235.193L166.315 238.198C166.426 238.255 166.55 238.285 166.675 238.285C166.8 238.285 166.923 238.255 167.035 238.198L171.548 235.604C171.735 235.492 171.726 235.305 171.548 235.184L166.334 232.179C166.221 232.125 166.098 232.098 165.973 232.1C165.848 232.101 165.725 232.132 165.614 232.188V232.179ZM159.026 235.977L154.522 238.571C154.326 238.683 154.335 238.87 154.522 238.991L159.736 241.996C159.848 242.054 159.971 242.084 160.096 242.084C160.221 242.084 160.345 242.054 160.456 241.996L164.969 239.402C165.156 239.29 165.147 239.103 164.969 238.991L159.746 235.996C159.635 235.939 159.512 235.909 159.387 235.907C159.262 235.906 159.139 235.933 159.026 235.986V235.977ZM152.485 239.775L147.981 242.37C147.785 242.482 147.794 242.668 147.981 242.79L153.195 245.795C153.307 245.85 153.43 245.878 153.555 245.878C153.68 245.878 153.803 245.85 153.915 245.795L158.428 243.191C158.615 243.079 158.606 242.892 158.428 242.78L153.204 239.841C153.092 239.766 152.963 239.722 152.829 239.713C152.694 239.703 152.56 239.728 152.438 239.785L152.485 239.775ZM186.126 244.441L190.63 241.838C190.826 241.726 190.808 241.539 190.63 241.427L185.416 238.413C185.305 238.358 185.184 238.329 185.061 238.329C184.937 238.329 184.816 238.358 184.706 238.413L180.192 241.007C180.005 241.119 180.014 241.306 180.192 241.427L185.406 244.432C185.52 244.484 185.644 244.51 185.768 244.507C185.893 244.503 186.015 244.471 186.126 244.413V244.441ZM243.998 187.02L239.484 189.623C239.297 189.735 239.307 189.922 239.484 190.034L244.699 193.039C244.81 193.096 244.933 193.126 245.058 193.126C245.184 193.126 245.307 193.096 245.418 193.039L249.922 190.435C250.119 190.333 250.1 190.146 249.922 190.025L244.717 187.02C244.608 186.958 244.486 186.923 244.361 186.918C244.236 186.914 244.111 186.939 243.998 186.992V187.02ZM236.017 191.621L231.513 194.224C231.317 194.327 231.326 194.514 231.513 194.635L236.728 197.64C236.839 197.697 236.962 197.727 237.087 197.727C237.213 197.727 237.336 197.697 237.447 197.64L241.979 195.046C242.166 194.934 242.157 194.747 241.979 194.635L236.765 191.63C236.653 191.562 236.526 191.523 236.396 191.517C236.265 191.51 236.135 191.536 236.017 191.593V191.621ZM250.586 183.221L246.072 185.825C245.885 185.937 245.895 186.114 246.072 186.236L251.287 189.241C251.398 189.298 251.521 189.328 251.646 189.328C251.772 189.328 251.895 189.298 252.006 189.241L256.51 186.637C256.707 186.525 256.697 186.348 256.51 186.226L251.324 183.212C251.212 183.149 251.086 183.114 250.957 183.111C250.829 183.107 250.701 183.136 250.586 183.193V183.221ZM216.478 218.348L220.982 215.745C221.178 215.633 221.169 215.455 220.982 215.334L215.767 212.329C215.656 212.272 215.533 212.242 215.408 212.242C215.282 212.242 215.159 212.272 215.048 212.329L210.534 214.933C210.347 215.045 210.357 215.222 210.534 215.343L215.749 218.348C215.863 218.403 215.99 218.429 216.117 218.424C216.244 218.419 216.367 218.384 216.478 218.32V218.348ZM257.865 179.414C257.754 179.357 257.631 179.327 257.506 179.327C257.38 179.327 257.257 179.357 257.146 179.414L252.66 181.98C252.473 182.083 252.483 182.27 252.66 182.391L257.875 185.396C257.986 185.453 258.109 185.483 258.234 185.483C258.36 185.483 258.483 185.453 258.594 185.396L263.098 182.792C263.295 182.68 263.285 182.494 263.098 182.382L257.865 179.414ZM192.686 240.606L197.218 237.974C197.414 237.862 197.396 237.675 197.218 237.554L192.013 234.549C191.901 234.494 191.778 234.465 191.653 234.465C191.529 234.465 191.405 234.494 191.294 234.549L186.78 237.144C186.593 237.256 186.602 237.442 186.78 237.564L191.994 240.569C192.103 240.632 192.224 240.668 192.35 240.674C192.475 240.681 192.6 240.657 192.714 240.606H192.686ZM273.49 194.019L277.994 191.415C278.19 191.313 278.181 191.126 277.994 191.005L272.817 188C272.705 187.944 272.582 187.916 272.457 187.916C272.332 187.916 272.209 187.944 272.097 188L267.584 190.603C267.397 190.715 267.406 190.902 267.584 191.014L272.798 194.019C272.909 194.076 273.033 194.106 273.158 194.106C273.283 194.106 273.406 194.076 273.518 194.019H273.49ZM259.473 193.524L263.977 190.921C264.173 190.818 264.164 190.631 263.977 190.51L258.8 187.505C258.688 187.45 258.565 187.421 258.44 187.421C258.315 187.421 258.192 187.45 258.08 187.505L253.567 190.109C253.38 190.221 253.389 190.407 253.567 190.519L258.781 193.524C258.89 193.579 259.01 193.607 259.132 193.607C259.253 193.607 259.373 193.579 259.482 193.524H259.473ZM265.341 183.707C265.23 183.649 265.106 183.62 264.981 183.62C264.856 183.62 264.733 183.649 264.622 183.707L260.108 186.31C259.921 186.422 259.93 186.609 260.108 186.721L265.322 189.726C265.434 189.783 265.557 189.813 265.682 189.813C265.807 189.813 265.931 189.783 266.042 189.726L270.546 187.122C270.742 187.01 270.733 186.833 270.546 186.712L265.341 183.707ZM266.724 182.904L279.358 190.202C279.469 190.259 279.593 190.289 279.718 190.289C279.843 190.289 279.966 190.259 280.078 190.202L284.582 187.598C284.778 187.496 284.769 187.309 284.582 187.188L271.92 179.89C271.809 179.833 271.685 179.803 271.56 179.803C271.435 179.803 271.311 179.833 271.2 179.89L266.687 182.494C266.509 182.596 266.519 182.783 266.724 182.914V182.904ZM251.445 191.303L246.932 193.907C246.745 194.019 246.754 194.206 246.932 194.318L252.146 197.323C252.258 197.38 252.381 197.41 252.506 197.41C252.631 197.41 252.755 197.38 252.866 197.323L257.37 194.728C257.566 194.616 257.548 194.43 257.37 194.308L252.165 191.313C252.053 191.257 251.93 191.229 251.805 191.229C251.68 191.229 251.557 191.257 251.445 191.313V191.303ZM201.853 219.897L197.34 222.501C197.153 222.613 197.162 222.8 197.34 222.912L202.554 225.917C202.665 225.974 202.789 226.004 202.914 226.004C203.039 226.004 203.162 225.974 203.273 225.917L207.778 223.322C207.974 223.21 207.955 223.024 207.778 222.902L202.563 219.897C202.454 219.84 202.334 219.808 202.21 219.804C202.087 219.801 201.965 219.827 201.853 219.879V219.897ZM266.21 197.845C266.322 197.9 266.445 197.929 266.57 197.929C266.695 197.929 266.818 197.9 266.93 197.845L271.434 195.251C271.63 195.139 271.621 194.952 271.434 194.831L266.229 191.826C266.117 191.771 265.994 191.742 265.869 191.742C265.744 191.742 265.621 191.771 265.509 191.826L260.996 194.43C260.809 194.542 260.818 194.728 260.996 194.84L266.21 197.845ZM208.441 216.118L203.928 218.722C203.741 218.834 203.75 219.02 203.928 219.132L209.142 222.137C209.253 222.194 209.377 222.224 209.502 222.224C209.627 222.224 209.75 222.194 209.862 222.137L214.366 219.533C214.562 219.431 214.553 219.244 214.366 219.123L209.161 216.118C209.052 216.057 208.93 216.022 208.805 216.015C208.68 216.009 208.556 216.031 208.441 216.081V216.118ZM159.045 259.625C159.156 259.682 159.28 259.712 159.405 259.712C159.53 259.712 159.653 259.682 159.764 259.625L164.278 257.021C164.465 256.919 164.456 256.732 164.278 256.611L159.064 253.606C158.952 253.548 158.829 253.519 158.704 253.519C158.579 253.519 158.455 253.548 158.344 253.606L153.84 256.209C153.644 256.321 153.653 256.508 153.84 256.62L159.045 259.625ZM149.13 250.293L144.626 252.906C144.439 253.018 144.448 253.204 144.626 253.316L149.84 256.321C149.952 256.379 150.075 256.409 150.2 256.409C150.325 256.409 150.449 256.379 150.56 256.321L155.064 253.718C155.26 253.615 155.242 253.428 155.064 253.307L149.85 250.302C149.741 250.24 149.619 250.206 149.493 250.201C149.368 250.196 149.244 250.221 149.13 250.274V250.293ZM166.353 255.827L170.866 253.223C171.053 253.111 171.044 252.934 170.866 252.812L165.652 249.807C165.54 249.75 165.417 249.72 165.292 249.72C165.167 249.72 165.043 249.75 164.932 249.807L160.428 252.411C160.232 252.523 160.241 252.701 160.428 252.822L165.642 255.827C165.754 255.88 165.876 255.906 166 255.902C166.123 255.899 166.244 255.867 166.353 255.808V255.827ZM172.941 252.029L177.454 249.425C177.641 249.313 177.632 249.126 177.454 249.014L172.24 246.009C172.128 245.952 172.005 245.922 171.88 245.922C171.755 245.922 171.631 245.952 171.52 246.009L167.016 248.613C166.82 248.716 166.838 248.902 167.016 249.024L172.221 252.029C172.337 252.077 172.462 252.098 172.588 252.088C172.713 252.078 172.834 252.039 172.941 251.973V252.029ZM179.482 248.23L183.995 245.627C184.182 245.515 184.173 245.328 183.995 245.216L178.781 242.211C178.67 242.154 178.546 242.124 178.421 242.124C178.296 242.124 178.173 242.154 178.061 242.211L173.557 244.815C173.361 244.917 173.38 245.104 173.557 245.225L178.772 248.23C178.887 248.295 179.017 248.329 179.149 248.331C179.281 248.332 179.412 248.301 179.529 248.24L179.482 248.23ZM155.681 246.495L151.167 249.098C150.98 249.21 150.99 249.388 151.167 249.509L156.382 252.514C156.493 252.571 156.616 252.601 156.741 252.601C156.867 252.601 156.99 252.571 157.101 252.514L161.605 249.91C161.802 249.798 161.783 249.621 161.605 249.5L156.4 246.495C156.297 246.442 156.182 246.413 156.066 246.41C155.95 246.406 155.834 246.429 155.728 246.476L155.681 246.495ZM162.269 242.696L157.755 245.3C157.568 245.403 157.578 245.589 157.755 245.711L162.97 248.716C163.081 248.773 163.204 248.803 163.329 248.803C163.455 248.803 163.578 248.773 163.689 248.716L168.193 246.112C168.39 246 168.38 245.813 168.193 245.701L162.979 242.696C162.879 242.639 162.768 242.604 162.654 242.595C162.539 242.585 162.424 242.6 162.316 242.64L162.269 242.696ZM188.714 227.485L184.21 230.079C184.014 230.191 184.033 230.378 184.21 230.499L189.415 233.504C189.527 233.559 189.65 233.588 189.775 233.588C189.9 233.588 190.023 233.559 190.135 233.504L194.648 230.91C194.835 230.798 194.826 230.611 194.648 230.49L189.434 227.485C189.322 227.429 189.199 227.401 189.074 227.401C188.949 227.401 188.826 227.429 188.714 227.485ZM182.173 231.283L177.669 233.877C177.473 233.989 177.482 234.176 177.669 234.297L182.883 237.302C182.995 237.359 183.118 237.389 183.243 237.389C183.368 237.389 183.492 237.359 183.603 237.302L188.116 234.708C188.303 234.596 188.294 234.409 188.116 234.288L182.902 231.283C182.777 231.21 182.635 231.171 182.491 231.171C182.346 231.171 182.204 231.21 182.08 231.283H182.173ZM195.349 223.686L190.845 226.281C190.649 226.393 190.667 226.579 190.845 226.701L196.059 229.706C196.171 229.761 196.294 229.79 196.419 229.79C196.544 229.79 196.667 229.761 196.779 229.706L201.283 227.111C201.47 226.999 201.461 226.813 201.283 226.691L196.069 223.686C195.946 223.612 195.806 223.573 195.662 223.573C195.519 223.573 195.378 223.612 195.256 223.686H195.349ZM168.904 238.907L164.418 241.483C164.231 241.586 164.241 241.772 164.418 241.894L169.632 244.899C169.744 244.954 169.867 244.983 169.992 244.983C170.117 244.983 170.24 244.954 170.352 244.899L174.856 242.295C175.052 242.183 175.043 241.996 174.856 241.884L169.623 238.907C169.512 238.85 169.389 238.82 169.263 238.82C169.138 238.82 169.015 238.85 168.904 238.907ZM175.445 235.109L170.959 237.675C170.763 237.787 170.773 237.974 170.959 238.095L176.174 241.1C176.286 241.156 176.409 241.184 176.534 241.184C176.658 241.184 176.781 241.156 176.893 241.1L181.407 238.497C181.594 238.385 181.584 238.198 181.407 238.086L176.192 235.072C176.082 235.021 175.962 234.996 175.841 234.997C175.72 234.999 175.6 235.027 175.492 235.081L175.445 235.109ZM170.632 261.93L175.146 259.326C175.333 259.214 175.323 259.037 175.146 258.916L169.932 255.911C169.82 255.854 169.697 255.824 169.572 255.824C169.447 255.824 169.323 255.854 169.212 255.911L164.727 258.505C164.53 258.617 164.54 258.795 164.727 258.916L169.941 261.921C170.056 261.978 170.184 262.007 170.312 262.004C170.441 262 170.567 261.966 170.679 261.902L170.632 261.93ZM131.964 258.029L126.75 255.024C126.638 254.969 126.515 254.94 126.39 254.94C126.265 254.94 126.142 254.969 126.03 255.024L121.573 257.572C121.386 257.684 121.395 257.871 121.573 257.983L126.787 260.988C126.898 261.045 127.022 261.075 127.147 261.075C127.272 261.075 127.395 261.045 127.507 260.988L132.011 258.393C132.235 258.309 132.216 258.123 132.011 258.001L131.964 258.029ZM141.841 260.922L136.627 257.917C136.516 257.86 136.392 257.83 136.267 257.83C136.142 257.83 136.019 257.86 135.907 257.917L128.974 261.911C128.777 262.023 128.796 262.21 128.974 262.322L134.188 265.336C134.3 265.392 134.423 265.42 134.548 265.42C134.673 265.42 134.796 265.392 134.908 265.336L141.841 261.342C142.103 261.202 142.094 261.016 141.888 260.894L141.841 260.922ZM123.965 252.215L118.807 249.173C118.695 249.118 118.572 249.089 118.447 249.089C118.322 249.089 118.199 249.118 118.087 249.173L112.536 252.365C112.34 252.477 112.349 252.663 112.536 252.785L117.741 255.79C117.853 255.845 117.976 255.873 118.101 255.873C118.226 255.873 118.349 255.845 118.461 255.79L124.012 252.589C124.236 252.495 124.236 252.309 124.012 252.187L123.965 252.215ZM128.226 249.761C128.337 249.818 128.461 249.848 128.586 249.848C128.711 249.848 128.834 249.818 128.946 249.761L133.45 247.157C133.646 247.054 133.627 246.868 133.45 246.746L128.235 243.741C128.124 243.686 128 243.658 127.876 243.658C127.751 243.658 127.628 243.686 127.516 243.741L123.012 246.345C122.825 246.457 122.834 246.644 123.012 246.756L128.226 249.761ZM151.027 264.217L145.813 261.212C145.702 261.154 145.578 261.124 145.453 261.124C145.328 261.124 145.205 261.154 145.093 261.212L136.421 266.204C136.225 266.316 136.244 266.503 136.421 266.624L141.636 269.629C141.748 269.684 141.871 269.713 141.995 269.713C142.12 269.713 142.243 269.684 142.355 269.629L151.018 264.637C151.336 264.497 151.279 264.31 151.074 264.189L151.027 264.217ZM155.354 270.311L150.139 267.306C150.028 267.25 149.904 267.222 149.78 267.222C149.655 267.222 149.532 267.25 149.42 267.306L143.869 270.507C143.673 270.619 143.692 270.805 143.869 270.927L149.083 273.932C149.193 273.989 149.315 274.019 149.439 274.019C149.562 274.019 149.684 273.989 149.794 273.932L155.344 270.74C155.615 270.637 155.606 270.404 155.4 270.283L155.354 270.311ZM177.211 221.521C177.323 221.576 177.446 221.605 177.571 221.605C177.696 221.605 177.819 221.576 177.931 221.521L182.444 218.927C182.631 218.815 182.622 218.628 182.444 218.507L177.23 215.502C177.119 215.445 176.995 215.415 176.87 215.415C176.745 215.415 176.621 215.445 176.51 215.502L172.006 218.096C171.81 218.208 171.819 218.395 172.006 218.516L177.211 221.521ZM164.035 229.118C164.146 229.175 164.27 229.205 164.395 229.205C164.52 229.205 164.643 229.175 164.755 229.118L169.268 226.523C169.455 226.411 169.446 226.225 169.268 226.103L164.072 223.042C163.96 222.987 163.837 222.959 163.713 222.959C163.588 222.959 163.465 222.987 163.353 223.042L158.811 225.665C158.624 225.777 158.634 225.963 158.811 226.085L164.035 229.118ZM134.814 245.916C134.925 245.973 135.049 246.003 135.174 246.003C135.299 246.003 135.422 245.973 135.534 245.916L140.038 243.312C140.234 243.21 140.215 243.023 140.038 242.902L134.833 239.897C134.722 239.839 134.598 239.809 134.473 239.809C134.348 239.809 134.224 239.839 134.113 239.897L129.6 242.5C129.413 242.612 129.422 242.799 129.6 242.911L134.814 245.916ZM170.623 225.273C170.735 225.328 170.858 225.357 170.983 225.357C171.108 225.357 171.231 225.328 171.343 225.273L175.856 222.678C176.043 222.566 176.034 222.38 175.856 222.259L170.66 219.31C170.549 219.254 170.425 219.226 170.301 219.226C170.176 219.226 170.053 219.254 169.941 219.31L165.437 221.904C165.24 222.016 165.25 222.203 165.437 222.324L170.623 225.273ZM157.447 232.869C157.558 232.927 157.682 232.957 157.807 232.957C157.932 232.957 158.055 232.927 158.167 232.869L162.671 230.275C162.867 230.163 162.858 229.976 162.671 229.864L157.456 226.85C157.344 226.795 157.221 226.766 157.097 226.766C156.972 226.766 156.849 226.795 156.737 226.85L152.27 229.463C152.083 229.575 152.092 229.762 152.27 229.883L157.447 232.869ZM158.97 270.759C158.859 270.701 158.736 270.671 158.61 270.671C158.485 270.671 158.362 270.701 158.251 270.759L151.336 274.753C151.139 274.865 151.158 275.051 151.336 275.173L156.541 278.178C156.652 278.233 156.776 278.262 156.9 278.262C157.025 278.262 157.148 278.233 157.26 278.178L164.203 274.174C164.39 274.062 164.381 273.876 164.203 273.764L158.97 270.759ZM147.99 238.319C148.101 238.377 148.225 238.407 148.35 238.407C148.475 238.407 148.598 238.377 148.71 238.319L153.214 235.716C153.41 235.604 153.401 235.417 153.214 235.305L148.028 232.375C147.916 232.317 147.793 232.288 147.668 232.288C147.543 232.288 147.419 232.317 147.308 232.375L142.794 234.978C142.608 235.081 142.617 235.268 142.794 235.389L147.99 238.319ZM141.402 242.118C141.513 242.175 141.637 242.205 141.762 242.205C141.887 242.205 142.01 242.175 142.122 242.118L146.626 239.514C146.822 239.402 146.813 239.225 146.626 239.103L141.439 236.108C141.328 236.05 141.205 236.02 141.08 236.02C140.955 236.02 140.831 236.05 140.72 236.108L136.206 238.711C136.02 238.823 136.029 239.001 136.206 239.122L141.402 242.118ZM281.05 200.365C280.938 200.31 280.815 200.281 280.69 200.281C280.565 200.281 280.442 200.31 280.33 200.365L269.228 206.758C269.032 206.87 269.051 207.056 269.228 207.178L274.443 210.183C274.554 210.24 274.677 210.27 274.803 210.27C274.928 210.27 275.051 210.24 275.162 210.183L286.255 203.79C286.451 203.678 286.432 203.491 286.255 203.37L281.05 200.365ZM266.481 208.764C266.369 208.709 266.246 208.68 266.121 208.68C265.997 208.68 265.874 208.709 265.762 208.764L261.248 211.358C261.061 211.47 261.071 211.657 261.248 211.778L266.462 214.783C266.574 214.838 266.697 214.867 266.822 214.867C266.947 214.867 267.07 214.838 267.182 214.783L271.686 212.189C271.882 212.077 271.873 211.89 271.686 211.769L266.481 208.764ZM177.22 258.085L181.734 255.482C181.921 255.37 181.911 255.183 181.734 255.071L176.566 252.085C176.455 252.027 176.332 251.997 176.207 251.997C176.081 251.997 175.958 252.027 175.847 252.085L171.343 254.688C171.146 254.791 171.156 254.978 171.343 255.099L176.548 258.104C176.659 258.161 176.782 258.191 176.907 258.191C177.033 258.191 177.156 258.161 177.267 258.104L177.22 258.085ZM253.305 216.361C253.193 216.305 253.07 216.277 252.945 216.277C252.821 216.277 252.697 216.305 252.586 216.361L248.072 218.955C247.885 219.067 247.894 219.254 248.072 219.375L253.286 222.38C253.398 222.435 253.521 222.464 253.646 222.464C253.771 222.464 253.894 222.435 254.006 222.38L258.51 219.776C258.706 219.664 258.688 219.477 258.51 219.366L253.305 216.361ZM287.638 196.567C287.526 196.509 287.403 196.479 287.278 196.479C287.153 196.479 287.029 196.509 286.918 196.567L282.405 199.161C282.218 199.273 282.227 199.46 282.405 199.581L287.619 202.586C287.731 202.641 287.854 202.67 287.979 202.67C288.103 202.67 288.227 202.641 288.338 202.586L292.843 199.992C293.039 199.88 293.029 199.693 292.843 199.572L287.638 196.567ZM299.44 195.773L286.834 188.513C286.722 188.458 286.599 188.429 286.474 188.429C286.349 188.429 286.226 188.458 286.114 188.513L281.601 191.117C281.414 191.229 281.423 191.415 281.601 191.527L294.31 198.778C294.422 198.834 294.545 198.862 294.669 198.862C294.794 198.862 294.917 198.834 295.029 198.778L299.533 196.184C299.702 196.1 299.692 195.913 299.487 195.792L299.44 195.773ZM228.682 230.564C228.571 230.507 228.447 230.477 228.322 230.477C228.197 230.477 228.073 230.507 227.962 230.564L222.411 233.765C222.215 233.877 222.234 234.064 222.411 234.176L227.616 237.181C227.728 237.238 227.851 237.268 227.976 237.268C228.101 237.268 228.225 237.238 228.336 237.181L233.887 233.98C234.083 233.868 234.064 233.681 233.887 233.569L228.682 230.564ZM245.325 220.961C245.213 220.906 245.09 220.878 244.965 220.878C244.84 220.878 244.717 220.906 244.605 220.961L237.671 224.956C237.475 225.068 237.494 225.254 237.671 225.376L242.876 228.381C242.988 228.436 243.111 228.464 243.236 228.464C243.361 228.464 243.484 228.436 243.596 228.381L250.539 224.386C250.726 224.274 250.717 224.088 250.539 223.966L245.325 220.961ZM213.469 239.374C213.357 239.319 213.234 239.29 213.109 239.29C212.984 239.29 212.861 239.319 212.749 239.374L175.632 260.764C175.436 260.866 175.445 261.053 175.632 261.174L180.846 264.179C180.957 264.237 181.081 264.266 181.206 264.266C181.331 264.266 181.454 264.237 181.566 264.179L218.674 242.78C218.87 242.668 218.86 242.482 218.674 242.37L213.469 239.374ZM174.277 261.977C174.166 261.92 174.042 261.89 173.917 261.89C173.792 261.89 173.669 261.92 173.557 261.977L168.007 265.178C167.82 265.29 167.829 265.476 168.007 265.588L173.221 268.593C173.332 268.651 173.455 268.681 173.581 268.681C173.706 268.681 173.829 268.651 173.94 268.593L179.491 265.392C179.678 265.28 179.669 265.103 179.491 264.982L174.277 261.977ZM221.094 234.978C220.983 234.921 220.859 234.891 220.734 234.891C220.609 234.891 220.486 234.921 220.374 234.978L214.824 238.17C214.637 238.282 214.646 238.469 214.824 238.59L220.038 241.595C220.149 241.652 220.272 241.682 220.398 241.682C220.523 241.682 220.646 241.652 220.757 241.595L226.308 238.403C226.495 238.291 226.486 238.105 226.308 237.983L221.094 234.978ZM166.652 266.372C166.54 266.317 166.417 266.289 166.292 266.289C166.167 266.289 166.044 266.317 165.932 266.372L160.381 269.573C160.185 269.685 160.204 269.872 160.381 269.993L165.586 272.998C165.697 273.056 165.821 273.085 165.946 273.085C166.071 273.085 166.195 273.056 166.306 272.998L171.894 269.797C172.09 269.685 172.071 269.499 171.894 269.377L166.652 266.372ZM236.372 226.178C236.261 226.123 236.137 226.094 236.013 226.094C235.888 226.094 235.765 226.123 235.653 226.178L230.102 229.379C229.915 229.482 229.925 229.668 230.102 229.79L235.317 232.795C235.428 232.85 235.552 232.879 235.676 232.879C235.801 232.879 235.924 232.85 236.036 232.795L241.587 229.594C241.774 229.482 241.764 229.295 241.587 229.174L236.372 226.178ZM259.959 212.581C259.847 212.526 259.724 212.497 259.599 212.497C259.474 212.497 259.351 212.526 259.239 212.581L254.725 215.175C254.539 215.287 254.548 215.474 254.725 215.595L259.94 218.6C260.051 218.658 260.174 218.687 260.3 218.687C260.425 218.687 260.548 218.658 260.659 218.6L265.164 216.006C265.36 215.894 265.35 215.707 265.164 215.586L259.959 212.581ZM274.396 202.11L278.9 199.516C279.097 199.404 279.078 199.217 278.9 199.096L273.695 196.091C273.584 196.033 273.461 196.004 273.335 196.004C273.21 196.004 273.087 196.033 272.976 196.091L268.462 198.685C268.275 198.797 268.285 198.984 268.462 199.105L273.677 202.11C273.786 202.162 273.906 202.189 274.027 202.189C274.148 202.189 274.268 202.162 274.377 202.11H274.396ZM244.932 201.923L249.446 199.32C249.633 199.217 249.623 199.03 249.446 198.909L244.231 195.904C244.12 195.847 243.997 195.817 243.872 195.817C243.746 195.817 243.623 195.847 243.512 195.904L239.008 198.508C238.811 198.62 238.821 198.806 239.008 198.918L244.222 201.923C244.33 201.976 244.448 202.004 244.568 202.004C244.688 202.004 244.806 201.976 244.914 201.923H244.932ZM229.981 227.709L243.166 220.112C243.353 220 243.344 219.813 243.166 219.692L237.952 216.687C237.84 216.63 237.717 216.6 237.592 216.6C237.467 216.6 237.343 216.63 237.232 216.687L224.056 224.284C223.86 224.396 223.879 224.573 224.056 224.694L229.261 227.699C229.372 227.758 229.495 227.79 229.62 227.791C229.745 227.793 229.869 227.764 229.981 227.709ZM267.07 205.899C267.182 205.954 267.305 205.983 267.43 205.983C267.554 205.983 267.678 205.954 267.789 205.899L272.294 203.305C272.49 203.193 272.471 203.006 272.294 202.885L267.079 199.88C266.967 199.824 266.844 199.796 266.719 199.796C266.595 199.796 266.472 199.824 266.36 199.88L261.827 202.511C261.641 202.623 261.65 202.81 261.827 202.931L267.07 205.899ZM260.342 201.615L264.846 199.021C265.042 198.909 265.023 198.722 264.846 198.601L259.631 195.596C259.522 195.539 259.4 195.509 259.276 195.509C259.153 195.509 259.031 195.539 258.921 195.596L254.408 198.19C254.221 198.302 254.23 198.489 254.408 198.61L259.622 201.615C259.737 201.665 259.861 201.687 259.986 201.681C260.111 201.674 260.233 201.639 260.342 201.578V201.615ZM223.393 231.479L227.906 228.875C228.093 228.772 228.084 228.586 227.906 228.465L222.692 225.459C222.581 225.402 222.457 225.372 222.332 225.372C222.207 225.372 222.083 225.402 221.972 225.459L217.468 228.063C217.272 228.175 217.281 228.362 217.468 228.474L222.682 231.479C222.79 231.539 222.911 231.573 223.034 231.578C223.158 231.583 223.28 231.558 223.393 231.507V231.479ZM252.501 214.27C252.613 214.325 252.736 214.354 252.861 214.354C252.986 214.354 253.109 214.325 253.221 214.27L257.725 211.676C257.921 211.564 257.912 211.377 257.725 211.256L252.511 208.251C252.4 208.193 252.276 208.164 252.151 208.164C252.026 208.164 251.902 208.193 251.791 208.251L247.259 210.91C247.072 211.022 247.081 211.209 247.259 211.33L252.501 214.27ZM190.453 250.47L194.957 247.876C195.153 247.764 195.134 247.577 194.957 247.465L189.714 244.507C189.602 244.452 189.479 244.423 189.355 244.423C189.23 244.423 189.107 244.452 188.995 244.507L184.491 247.101C184.304 247.213 184.313 247.4 184.491 247.521L189.705 250.526C189.822 250.584 189.952 250.612 190.082 250.607C190.213 250.602 190.34 250.565 190.453 250.498V250.47ZM196.994 246.672L201.498 244.077C201.694 243.965 201.676 243.779 201.498 243.658L196.293 240.652C196.181 240.597 196.058 240.569 195.933 240.569C195.808 240.569 195.685 240.597 195.573 240.652L191.06 243.247C190.873 243.359 190.882 243.546 191.06 243.667L196.274 246.672C196.39 246.739 196.52 246.777 196.654 246.782C196.788 246.787 196.92 246.758 197.041 246.7L196.994 246.672ZM183.855 254.306L188.369 251.702C188.556 251.59 188.546 251.403 188.369 251.291L183.108 248.286C182.996 248.229 182.873 248.199 182.748 248.199C182.623 248.199 182.499 248.229 182.388 248.286L177.884 250.881C177.688 250.993 177.706 251.179 177.884 251.301L183.098 254.306C183.214 254.369 183.345 254.402 183.477 254.402C183.609 254.402 183.739 254.369 183.855 254.306ZM210.207 239.103L214.711 236.509C214.908 236.397 214.898 236.21 214.711 236.089L209.497 233.084C209.386 233.027 209.262 232.997 209.137 232.997C209.012 232.997 208.889 233.027 208.778 233.084L204.264 235.678C204.077 235.79 204.086 235.977 204.264 236.089L209.478 239.103C209.591 239.16 209.716 239.189 209.843 239.189C209.969 239.189 210.094 239.16 210.207 239.103ZM203.666 242.902L208.17 240.307C208.366 240.195 208.357 240.009 208.17 239.887L202.956 236.882C202.845 236.825 202.721 236.795 202.596 236.795C202.471 236.795 202.347 236.825 202.236 236.882L197.723 239.477C197.536 239.589 197.545 239.775 197.723 239.897L202.937 242.902C203.05 242.958 203.175 242.988 203.302 242.988C203.428 242.988 203.553 242.958 203.666 242.902ZM216.842 235.305L221.355 232.711C221.542 232.599 221.533 232.412 221.355 232.291L216.141 229.286C216.029 229.231 215.906 229.202 215.781 229.202C215.657 229.202 215.534 229.231 215.422 229.286L210.917 231.889C210.721 232.001 210.731 232.188 210.917 232.3L216.132 235.314C216.238 235.361 216.353 235.384 216.469 235.383C216.585 235.381 216.7 235.355 216.805 235.305H216.842ZM246.988 179.106C247.1 179.161 247.223 179.19 247.348 179.19C247.473 179.19 247.596 179.161 247.708 179.106L252.212 176.512C252.408 176.4 252.399 176.213 252.212 176.092L250.819 175.289C250.707 175.234 250.584 175.205 250.46 175.205C250.335 175.205 250.212 175.234 250.1 175.289L245.596 177.883C245.399 177.995 245.418 178.182 245.596 178.303L246.988 179.106ZM214.571 200.001C214.683 200.056 214.806 200.085 214.931 200.085C215.056 200.085 215.179 200.056 215.291 200.001L219.795 197.397C219.991 197.285 219.972 197.099 219.795 196.987L214.581 193.982C214.471 193.924 214.349 193.894 214.225 193.894C214.102 193.894 213.98 193.924 213.87 193.982L209.273 196.576C209.086 196.688 209.095 196.875 209.273 196.996L214.571 200.001ZM227.747 192.404C227.859 192.46 227.982 192.488 228.107 192.488C228.232 192.488 228.355 192.46 228.467 192.404L232.971 189.81C233.167 189.698 233.158 189.511 232.971 189.39L227.757 186.385C227.645 186.33 227.522 186.301 227.397 186.301C227.272 186.301 227.149 186.33 227.037 186.385L222.524 188.98C222.337 189.091 222.346 189.278 222.524 189.399L227.747 192.404ZM206.469 204.639C206.581 204.694 206.704 204.723 206.829 204.723C206.954 204.723 207.077 204.694 207.189 204.639L211.693 202.035C211.889 201.923 211.871 201.737 211.693 201.625L206.469 198.638C206.36 198.581 206.238 198.551 206.114 198.551C205.991 198.551 205.869 198.581 205.759 198.638L201.246 201.242C201.059 201.345 201.068 201.531 201.246 201.653L206.469 204.639ZM221.103 196.24C221.214 196.297 221.338 196.327 221.463 196.327C221.588 196.327 221.711 196.297 221.823 196.24L226.327 193.646C226.523 193.534 226.504 193.347 226.327 193.226L221.122 190.221C221.01 190.166 220.887 190.137 220.762 190.137C220.637 190.137 220.514 190.166 220.402 190.221L215.889 192.815C215.702 192.927 215.711 193.114 215.889 193.235L221.103 196.24ZM193.284 212.273C193.395 212.33 193.519 212.36 193.644 212.36C193.769 212.36 193.892 212.33 194.004 212.273L198.517 209.669C198.704 209.557 198.695 209.38 198.517 209.259L193.293 206.244C193.182 206.187 193.059 206.157 192.934 206.157C192.808 206.157 192.685 206.187 192.574 206.244L188.07 208.848C187.873 208.96 187.892 209.137 188.07 209.259L193.284 212.273ZM199.881 208.475C199.991 208.532 200.113 208.562 200.236 208.562C200.36 208.562 200.482 208.532 200.592 208.475L205.105 205.871C205.292 205.759 205.283 205.582 205.105 205.46L199.928 202.437C199.817 202.379 199.693 202.35 199.568 202.35C199.443 202.35 199.32 202.379 199.209 202.437L194.704 205.04C194.508 205.143 194.527 205.33 194.704 205.451L199.881 208.475ZM233.756 186.74C233.868 186.795 233.991 186.824 234.116 186.824C234.24 186.824 234.364 186.795 234.475 186.74L238.98 184.145C239.176 184.033 239.157 183.847 238.98 183.725L237.587 182.914C237.476 182.856 237.353 182.826 237.228 182.826C237.102 182.826 236.979 182.856 236.868 182.914L232.364 185.517C232.167 185.62 232.177 185.807 232.364 185.928L233.756 186.74ZM253.52 175.336C253.631 175.393 253.755 175.423 253.88 175.423C254.005 175.423 254.128 175.393 254.24 175.336L258.753 172.732C258.94 172.629 258.931 172.443 258.753 172.321L257.361 171.519C257.249 171.464 257.126 171.435 257.001 171.435C256.876 171.435 256.753 171.464 256.641 171.519L252.137 174.113C251.941 174.225 251.959 174.412 252.137 174.533L253.52 175.336ZM264.472 181.654C264.584 181.709 264.707 181.737 264.832 181.737C264.957 181.737 265.08 181.709 265.192 181.654L269.705 179.05C269.892 178.938 269.883 178.751 269.705 178.639L264.491 175.634C264.379 175.577 264.256 175.547 264.131 175.547C264.006 175.547 263.882 175.577 263.771 175.634L259.258 178.247C259.061 178.35 259.071 178.537 259.258 178.658L264.472 181.654ZM280.947 198.349L285.451 195.755C285.647 195.643 285.638 195.456 285.451 195.335L280.237 192.33C280.125 192.275 280.002 192.246 279.877 192.246C279.752 192.246 279.629 192.275 279.517 192.33L275.004 194.934C274.817 195.046 274.826 195.232 275.004 195.344L280.218 198.358C280.337 198.411 280.467 198.434 280.597 198.426C280.727 198.418 280.854 198.379 280.965 198.312L280.947 198.349ZM240.363 182.914C240.475 182.969 240.598 182.997 240.722 182.997C240.847 182.997 240.97 182.969 241.082 182.914L245.586 180.319C245.783 180.207 245.773 180.02 245.586 179.899L244.194 179.106C244.083 179.049 243.959 179.019 243.834 179.019C243.709 179.019 243.586 179.049 243.474 179.106L238.97 181.7C238.774 181.812 238.783 181.999 238.97 182.12L240.363 182.914ZM186.715 216.043C186.826 216.1 186.949 216.13 187.074 216.13C187.2 216.13 187.323 216.1 187.434 216.043L191.948 213.439C192.135 213.337 192.125 213.15 191.948 213.029L186.733 210.024C186.622 209.967 186.499 209.937 186.374 209.937C186.248 209.937 186.125 209.967 186.014 210.024L181.51 212.628C181.313 212.74 181.323 212.926 181.51 213.038L186.715 216.043Z" fill="#455A64"/>
<path d="M213.508 256.937L262.857 228.483L293.228 245.991L243.878 274.445L213.508 256.937Z" fill="#1E2A34"/>
<path d="M103.866 113.556L250.905 28.7717C253.783 27.1199 256.138 28.4731 256.138 31.7861V145.528C256.09 146.369 255.846 147.187 255.424 147.917C255.002 148.646 254.414 149.266 253.709 149.728L102.932 236.658C101.595 237.423 100.502 236.798 100.502 235.258V119.37C100.569 118.206 100.908 117.073 101.493 116.064C102.077 115.054 102.89 114.195 103.866 113.556Z" fill="#F5F5F5"/>
<path d="M256.138 34.5298V31.7861C256.138 28.4731 253.783 27.1199 250.905 28.7717L103.866 113.556C102.89 114.195 102.077 115.054 101.493 116.064C100.908 117.073 100.569 118.206 100.502 119.37V124.251L256.138 34.5298Z" fill="#FF9900"/>
<path d="M234.206 40.7171C233.68 41.0627 233.243 41.5278 232.931 42.0744C232.619 42.6211 232.441 43.2337 232.412 43.8621C232.412 45.01 233.216 45.4766 234.206 44.898C234.732 44.5599 235.17 44.1018 235.483 43.5615C235.797 43.0211 235.977 42.414 236.01 41.7903C236.01 40.6145 235.206 40.1292 234.206 40.7171Z" fill="white"/>
<path d="M241.354 36.6015C240.83 36.9433 240.393 37.4035 240.08 37.945C239.767 38.4865 239.585 39.0941 239.551 39.7185C239.551 40.8664 240.364 41.3237 241.354 40.7544C241.879 40.4126 242.315 39.9524 242.629 39.4109C242.942 38.8694 243.123 38.2618 243.158 37.6374C243.158 36.4895 242.345 36.0322 241.354 36.6015Z" fill="white"/>
<path d="M248.52 32.486C247.994 32.8241 247.557 33.2822 247.243 33.8226C246.93 34.3629 246.749 34.97 246.717 35.5937C246.717 36.7416 247.52 37.2082 248.52 36.6389C249.043 36.2961 249.478 35.8354 249.789 35.294C250.101 34.7526 250.281 34.1455 250.315 33.5219C250.296 32.3741 249.455 31.9074 248.52 32.486Z" fill="white"/>
<path d="M136.784 179.936L131.062 176.637L117.05 200.875L122.772 204.174L136.784 179.936Z" fill="#37474F"/>
<path d="M136.779 179.924L133.922 178.277L119.909 202.515L122.766 204.162L136.779 179.924Z" fill="#1E2A34"/>
<path d="M101.686 248.24C99.0792 252.756 86.7349 245.571 89.3234 241.11L121.525 190.939C121.612 190.803 121.748 190.706 121.905 190.668C122.061 190.63 122.227 190.653 122.366 190.734L128.823 194.467C128.963 194.547 129.067 194.679 129.112 194.833C129.157 194.988 129.141 195.154 129.066 195.297L101.686 248.24Z" fill="#FF9900"/>
<path opacity="0.1" d="M101.689 248.24L129.069 195.325C129.143 195.182 129.16 195.016 129.114 194.861C129.069 194.707 128.966 194.575 128.826 194.495L125.882 192.796L94.4746 248.52C97.3528 249.901 100.511 250.246 101.689 248.24Z" fill="black"/>
<path d="M196.311 130.158C196.311 129.775 196.311 129.402 196.255 129.029C196.199 128.655 196.255 128.291 196.171 127.927C196.087 127.563 196.171 127.442 196.096 127.2C196.031 126.565 195.938 125.94 195.835 125.333C195.788 125.062 195.741 124.782 195.685 124.512C195.629 124.241 195.583 123.999 195.526 123.747C195.368 123.056 195.199 122.384 195.003 121.74C194.9 121.432 194.807 121.124 194.704 120.807C194.7 120.76 194.7 120.713 194.704 120.667C194.592 120.368 194.489 120.079 194.377 119.799C194.265 119.519 194.115 119.146 193.966 118.866C193.816 118.586 193.76 118.409 193.639 118.185C193.571 118.016 193.49 117.854 193.396 117.699C193.302 117.503 193.2 117.307 193.087 117.121C193.087 117.121 193.088 117.027 193.013 116.99C192.938 116.953 192.816 116.654 192.714 116.486C192.611 116.318 192.574 116.271 192.508 116.169C192.029 115.415 191.492 114.701 190.901 114.032L190.602 113.696L190.349 113.434C190.247 113.322 190.135 113.22 190.022 113.108C189.729 112.8 189.417 112.51 189.088 112.24C188.929 112.1 188.761 111.969 188.593 111.848L188.079 111.475C187.812 111.279 187.534 111.098 187.247 110.933L187.023 110.793L173.781 103.16H173.707C171.166 101.745 168.298 101.021 165.39 101.06C161.054 101.06 156.157 102.478 150.971 105.465C133.16 115.73 118.713 140.722 118.713 161.272C118.713 171.537 122.301 178.723 128.058 182.102H128.114L141.364 189.726H141.421L141.579 189.81C141.828 189.957 142.084 190.091 142.346 190.211C142.663 190.37 142.99 190.51 143.28 190.641C143.57 190.771 143.869 190.874 144.168 190.967L144.644 191.107C144.811 191.171 144.983 191.221 145.158 191.257C145.331 191.309 145.505 191.352 145.682 191.387C145.807 191.424 145.935 191.452 146.065 191.471C146.289 191.518 146.532 191.564 146.766 191.592C146.818 191.601 146.872 191.601 146.925 191.592C147.205 191.642 147.485 191.68 147.766 191.704C152.569 192.208 158.157 190.855 164.138 187.412C181.958 177.146 196.405 152.145 196.405 131.604C196.339 131.128 196.33 130.652 196.311 130.158ZM174.697 115.627C175.397 118.181 175.74 120.819 175.716 123.467C175.716 141.59 162.437 164.529 146.747 173.618C144.454 174.98 141.977 176.008 139.393 176.67C138.697 174.112 138.354 171.472 138.374 168.822C138.374 150.698 151.653 127.759 167.343 118.67C169.637 117.311 172.113 116.286 174.697 115.627Z" fill="#FF9900"/>
<path opacity="0.1" d="M140.806 189.446L127.976 181.98C122.173 178.593 118.631 171.388 118.631 161.16C118.631 151.996 121.509 141.954 126.265 132.734L139.516 140.367C134.751 149.588 131.882 159.629 131.882 168.794C131.807 178.845 135.218 185.946 140.806 189.446Z" fill="black"/>
<path opacity="0.4" d="M196.311 130.158C196.311 129.775 196.311 129.402 196.255 129.029C196.199 128.655 196.255 128.291 196.171 127.928C196.087 127.564 196.171 127.442 196.096 127.2C196.031 126.565 195.937 125.94 195.835 125.333C195.788 125.063 195.741 124.783 195.685 124.512C195.629 124.241 195.582 123.999 195.526 123.747C195.367 123.056 195.199 122.384 195.003 121.74C194.9 121.432 194.807 121.124 194.704 120.807C194.7 120.76 194.7 120.714 194.704 120.667C194.592 120.368 194.489 120.079 194.377 119.799C194.265 119.519 194.115 119.146 193.966 118.866C193.816 118.586 193.76 118.409 193.639 118.185C193.571 118.017 193.49 117.854 193.396 117.699C193.302 117.503 193.199 117.307 193.087 117.121C193.087 117.121 193.087 117.027 193.012 116.99C192.938 116.953 192.816 116.654 192.713 116.486C192.611 116.318 192.573 116.271 192.508 116.169C192.029 115.416 191.492 114.701 190.901 114.032L190.602 113.696L190.349 113.434C190.246 113.322 190.134 113.22 190.022 113.108C189.729 112.8 189.417 112.51 189.088 112.24C188.929 112.1 188.761 111.969 188.592 111.848L188.078 111.475C187.811 111.279 187.534 111.098 187.247 110.933C181.388 107.378 173.23 107.798 164.156 113.014C146.336 123.28 131.889 148.272 131.889 168.822C131.889 179.227 135.627 186.497 141.56 189.801C141.809 189.947 142.065 190.081 142.327 190.202C142.644 190.361 142.972 190.501 143.261 190.631C143.551 190.762 143.85 190.865 144.149 190.958L144.626 191.098C144.792 191.162 144.964 191.212 145.139 191.247C145.312 191.3 145.486 191.343 145.663 191.378C145.788 191.415 145.916 191.443 146.046 191.462C146.27 191.509 146.513 191.555 146.747 191.583C146.799 191.592 146.853 191.592 146.906 191.583C147.186 191.633 147.466 191.67 147.747 191.695C152.55 192.199 158.138 190.846 164.119 187.402C181.939 177.137 196.386 152.136 196.386 131.595C196.339 131.129 196.33 130.653 196.311 130.158ZM160.801 181.775C156.802 184.08 152.952 185.293 149.662 185.293C143.485 185.293 140.645 181.084 139.383 176.67C138.687 174.113 138.345 171.472 138.365 168.822C138.365 150.698 151.643 127.76 167.333 118.67C169.63 117.31 172.109 116.286 174.697 115.628C175.935 115.321 177.206 115.161 178.481 115.152C188.695 115.152 189.789 126.668 189.789 131.623C189.789 149.746 176.566 172.713 160.801 181.775Z" fill="white"/>
<path opacity="0.1" d="M189.791 131.586C189.791 149.709 176.522 172.648 160.822 181.738C156.823 184.043 152.973 185.256 149.683 185.256C143.507 185.256 140.666 181.047 139.404 176.633C141.989 175.97 144.465 174.943 146.759 173.581C162.476 164.52 175.727 141.553 175.727 123.429C175.751 120.782 175.409 118.144 174.709 115.59C175.947 115.284 177.217 115.124 178.493 115.114C188.716 115.152 189.791 126.668 189.791 131.586Z" fill="black"/>
<path opacity="0.7" d="M184.144 128.459C184.144 146.583 170.874 169.522 155.175 178.611C151.176 180.916 147.326 182.13 144.036 182.13C143.382 182.131 142.729 182.078 142.083 181.971C140.821 180.413 139.9 178.607 139.383 176.67C138.687 174.112 138.344 171.472 138.364 168.822C138.364 150.698 151.643 127.759 167.333 118.67C169.629 117.31 172.109 116.286 174.696 115.627C175.935 115.321 177.205 115.161 178.481 115.152C179.138 115.15 179.795 115.203 180.443 115.31C183.667 119.108 184.144 125.202 184.144 128.459Z" fill="white"/>
<path d="M206.787 109.561V130.223C206.787 131.763 207.871 132.388 209.217 131.623L344.771 53.437C345.477 52.9762 346.063 52.3558 346.484 51.6261C346.905 50.8965 347.147 50.0781 347.191 49.2374V28.5757C347.191 27.0359 346.108 26.4013 344.771 27.1759L209.217 105.362C208.508 105.82 207.918 106.44 207.496 107.17C207.073 107.9 206.831 108.719 206.787 109.561Z" fill="#E6E6E6"/>
<path d="M209.217 105.362L233.363 91.4568V117.718L209.217 131.586C207.871 132.351 206.787 131.726 206.787 130.186V109.562C206.831 108.719 207.073 107.9 207.496 107.17C207.918 106.44 208.508 105.82 209.217 105.362Z" fill="#FF9900"/>
<path d="M225.374 102.898C223.851 102.021 221.917 102.161 219.945 103.3C218.074 104.5 216.517 106.13 215.405 108.054C214.293 109.978 213.658 112.139 213.553 114.358C213.486 115.797 213.94 117.212 214.833 118.343L212.264 122.785C212.17 122.944 212.109 123.12 212.085 123.303C212.06 123.486 212.072 123.671 212.12 123.849C212.168 124.027 212.25 124.194 212.363 124.34C212.476 124.486 212.617 124.608 212.778 124.699C212.991 124.82 213.233 124.884 213.479 124.885C213.725 124.884 213.966 124.819 214.179 124.697C214.392 124.574 214.57 124.398 214.693 124.185L217.263 119.743C217.541 119.795 217.822 119.823 218.104 119.827C219.248 119.805 220.366 119.483 221.347 118.894C223.22 117.695 224.779 116.065 225.893 114.141C227.007 112.217 227.643 110.055 227.748 107.835C227.748 105.521 226.898 103.785 225.374 102.898ZM219.945 116.43C219.619 116.787 219.18 117.022 218.702 117.096C218.224 117.171 217.735 117.079 217.316 116.837C216.897 116.595 216.573 116.217 216.399 115.766C216.224 115.316 216.209 114.819 216.357 114.358C216.465 112.632 216.971 110.955 217.837 109.457C218.703 107.959 219.904 106.682 221.347 105.726C221.907 105.369 222.552 105.167 223.216 105.138C223.489 105.133 223.759 105.198 224.001 105.325C224.348 105.628 224.616 106.013 224.779 106.444C224.942 106.876 224.995 107.341 224.935 107.798C224.827 109.524 224.321 111.201 223.455 112.699C222.589 114.197 221.388 115.474 219.945 116.43Z" fill="white"/>
</svg>
